<svg width="41" height="47" viewBox="0 0 41 47" fill="none" xmlns="http://www.w3.org/2000/svg">
<path d="M40.6924 21.2934C40.6658 17.2694 39.4464 13.3278 37.1886 9.96711C34.9308 6.60642 31.736 3.97758 28.008 2.41302C24.2801 0.848462 20.1865 0.418451 16.245 1.17737C12.3034 1.93628 8.69097 3.85004 5.86438 6.67663C3.03779 9.50323 1.12403 13.1157 0.365112 17.0572C-0.393805 20.9988 0.0362054 25.0923 1.60077 28.8203C3.16533 32.5482 5.79417 35.7431 9.15485 38.0009C12.5155 40.2587 16.4571 41.478 20.4812 41.5047L20.4176 31.9082C18.2916 31.8941 16.2091 31.2499 14.4335 30.057C12.6579 28.8642 11.269 27.1762 10.4424 25.2066C9.61581 23.237 9.38862 21.0742 9.78958 18.9917C10.1905 16.9093 11.2017 15.0007 12.695 13.5073C14.1884 12.0139 16.097 11.0028 18.1795 10.6018C20.2619 10.2009 22.4247 10.4281 24.3943 11.2547C26.3639 12.0813 28.0519 13.4702 29.2448 15.2458C30.4377 17.0213 31.0819 19.1038 31.0959 21.2299L40.6924 21.2934Z" fill="#155ED7"/>
<path d="M40.6924 21.2934C40.6567 15.8973 38.4788 10.7081 34.6379 6.86719C30.7971 3.02631 25.6078 0.848449 20.2117 0.812712C14.8156 0.776975 9.65472 2.88629 5.86438 6.67663C2.07404 10.467 -0.0352788 15.6279 0.000456208 21.0239L9.59692 21.0875C9.57804 18.2366 10.6925 15.5099 12.695 13.5073C14.6976 11.5047 17.4243 10.3903 20.2752 10.4092C23.1262 10.4281 25.8679 11.5787 27.8972 13.608C29.9264 15.6373 31.0771 18.3789 31.0959 21.2299L40.6924 21.2934Z" fill="#7782FF"/>
<path d="M40.6924 21.2934C40.6747 18.6216 40.1309 15.9724 39.0921 13.4971C38.0533 11.0219 36.5397 8.769 34.6379 6.86719C32.7361 4.96538 30.4833 3.45185 28.008 2.41302C25.5328 1.37419 22.8836 0.830407 20.2117 0.812712L20.2752 10.4092C21.6869 10.4185 23.0866 10.7058 24.3943 11.2547C25.7021 11.8035 26.8924 12.6032 27.8972 13.608C28.9019 14.6128 29.7016 15.803 30.2504 17.1108C30.7993 18.4186 31.0866 19.8182 31.0959 21.2299L40.6924 21.2934Z" fill="#27CAEA"/>
<path d="M26.8819 46.188L26.8819 28.5336H33.6074V46.188H26.8819Z" fill="#27CAEA"/>
<path d="M20.1564 23.4895H40.7531V30.215H20.1564V23.4895Z" fill="#7782FF"/>
</svg>
