<svg width="50" height="50" viewBox="0 0 50 50" fill="none" xmlns="http://www.w3.org/2000/svg">
<path d="M25.0001 31.1979C24.7223 31.1979 24.4529 31.1458 24.1917 31.0417C23.9306 30.9375 23.714 30.7986 23.5417 30.625L13.9584 21.0417C13.5765 20.6597 13.3855 20.1736 13.3855 19.5833C13.3855 18.9931 13.5765 18.5069 13.9584 18.125C14.3404 17.7431 14.8265 17.5521 15.4167 17.5521C16.007 17.5521 16.4931 17.7431 16.8751 18.125L25.0001 26.25L33.1251 18.125C33.507 17.7431 33.9931 17.5521 34.5834 17.5521C35.1737 17.5521 35.6598 17.7431 36.0417 18.125C36.4237 18.5069 36.6147 18.9931 36.6147 19.5833C36.6147 20.1736 36.4237 20.6597 36.0417 21.0417L26.4584 30.625C26.2501 30.8333 26.0244 30.9812 25.7813 31.0688C25.5383 31.1562 25.2779 31.1993 25.0001 31.1979Z" fill="#155ED7"/>
</svg>