<svg width="50" height="51" viewBox="0 0 50 51" fill="none" xmlns="http://www.w3.org/2000/svg">
<path d="M13.9582 31.125C13.5762 30.743 13.3853 30.2569 13.3853 29.6667C13.3853 29.0764 13.5762 28.5903 13.9582 28.2083L23.5415 18.625C23.7498 18.4167 23.9755 18.2694 24.2186 18.1833C24.4616 18.0972 24.7221 18.0535 24.9998 18.0521C25.2776 18.0521 25.5471 18.1042 25.8082 18.2083C26.0693 18.3125 26.2859 18.4514 26.4582 18.625L36.0415 28.2083C36.4234 28.5903 36.6144 29.0764 36.6144 29.6667C36.6144 30.2569 36.4234 30.743 36.0415 31.125C35.6596 31.5069 35.1734 31.6979 34.5832 31.6979C33.9929 31.6979 33.5068 31.5069 33.1248 31.125L24.9998 23L16.8748 31.125C16.4929 31.5069 16.0068 31.6979 15.4165 31.6979C14.8262 31.6979 14.3401 31.5069 13.9582 31.125Z" fill="#155ED7"/>
</svg>
